<mxfile host="app.diagrams.net" modified="2024-05-27T05:07:28.837Z" agent="Mozilla/5.0 (X11; Linux x86_64) AppleWebKit/537.36 (KHTML, like Gecko) Chrome/125.0.0.0 Safari/537.36" version="24.4.8" etag="ubA-zpkaoechiu2RGaj6" type="github">
  <diagram name="Page-1" id="v50Cbmr14Gt-rF-dj6Qk">
    <mxGraphModel>
      <root>
        <mxCell id="0" />
        <mxCell id="1" parent="0" />
      </root>
    </mxGraphModel>
  </diagram>
</mxfile>
